<mxfile host="app.diagrams.net" modified="2020-12-31T02:26:39.761Z" agent="5.0 (Windows)" etag="RxzFiQxhP2cwkGerM5D0" version="14.1.4" type="github">
  <diagram id="8UfvSjLRbzpjoi_OQcSS" name="Page-1">
    <mxGraphModel dx="1190" dy="583" grid="1" gridSize="10" guides="1" tooltips="1" connect="1" arrows="1" fold="1" page="1" pageScale="1" pageWidth="827" pageHeight="1169" math="0" shadow="0">
      <root>
        <mxCell id="0" />
        <mxCell id="1" parent="0" />
        <mxCell id="0T_m-J1MAF1MEhZM0Qkr-1" value="User Request: POST" style="rounded=0;whiteSpace=wrap;html=1;" vertex="1" parent="1">
          <mxGeometry x="40" y="130" width="120" height="60" as="geometry" />
        </mxCell>
        <mxCell id="0T_m-J1MAF1MEhZM0Qkr-2" value="" style="endArrow=classic;html=1;exitX=1;exitY=0.5;exitDx=0;exitDy=0;" edge="1" parent="1" source="0T_m-J1MAF1MEhZM0Qkr-1" target="0T_m-J1MAF1MEhZM0Qkr-3">
          <mxGeometry width="50" height="50" relative="1" as="geometry">
            <mxPoint x="170" y="160" as="sourcePoint" />
            <mxPoint x="260" y="160" as="targetPoint" />
          </mxGeometry>
        </mxCell>
        <mxCell id="0T_m-J1MAF1MEhZM0Qkr-3" value="Service #1" style="ellipse;whiteSpace=wrap;html=1;" vertex="1" parent="1">
          <mxGeometry x="200" y="100" width="120" height="120" as="geometry" />
        </mxCell>
        <mxCell id="0T_m-J1MAF1MEhZM0Qkr-4" value="POST-Review" style="text;html=1;strokeColor=none;fillColor=none;align=center;verticalAlign=middle;whiteSpace=wrap;rounded=0;" vertex="1" parent="1">
          <mxGeometry x="220" y="240" width="80" height="20" as="geometry" />
        </mxCell>
        <mxCell id="0T_m-J1MAF1MEhZM0Qkr-5" value="DB: MYSQL" style="strokeWidth=2;html=1;shape=mxgraph.flowchart.database;whiteSpace=wrap;" vertex="1" parent="1">
          <mxGeometry x="430" y="110" width="89" height="100" as="geometry" />
        </mxCell>
        <mxCell id="0T_m-J1MAF1MEhZM0Qkr-6" value="" style="endArrow=classic;startArrow=classic;html=1;" edge="1" parent="1">
          <mxGeometry width="50" height="50" relative="1" as="geometry">
            <mxPoint x="330" y="170" as="sourcePoint" />
            <mxPoint x="424" y="170" as="targetPoint" />
            <Array as="points">
              <mxPoint x="380" y="160" />
            </Array>
          </mxGeometry>
        </mxCell>
      </root>
    </mxGraphModel>
  </diagram>
</mxfile>
